# Made in Blockbench 4.12.5
mtllib DoorTypeA.mtl

o cube
v 1 1.25 0.125
v 1 1.25 -0.125
v 1 -1 0.125
v 1 -1 -0.125
v 0.75 1.25 0.125
v 0.75 1.25 -0.125
v 0.75 -1 0.125
v 0.75 -1 -0.125
v 0.75 2.75 0.0625
v 0.75 2.75 -0.0625
v 0.75 1.25 0.0625
v 0.75 1.25 -0.0625
v -0.75 2.75 0.0625
v -0.75 2.75 -0.0625
v -0.75 1.25 0.0625
v -0.75 1.25 -0.0625
v -0.75 3 0.125
v -0.75 3 -0.125
v -1 3 0.125
v -1 3 -0.125
v -1 2.75 0.125
v -1 2.75 -0.125
v 0.75 3 0.125
v 0.75 3 -0.125
v 0.75 2.75 -0.125
v -0.75 2.75 0.125
v 1 3 0.125
v 1 3 -0.125
v 1 2.75 0.125
v 1 2.75 -0.125
v 0.75 0.8125 0.1875
v 0.75 0.8125 -0.1875
v 0.75 0.6875 0.1875
v 0.75 0.6875 -0.1875
v 0.625 0.8125 0.1875
v 0.625 0.8125 -0.1875
v 0.625 0.6875 0.1875
v 0.625 0.6875 -0.1875
v 0.78125 0.84375 -0.1875
v 0.78125 0.84375 -0.3125
v 0.78125 0.65625 -0.1875
v 0.78125 0.65625 -0.3125
v 0.59375 0.84375 -0.1875
v 0.59375 0.84375 -0.3125
v 0.59375 0.65625 -0.1875
v 0.59375 0.65625 -0.3125
v 0.78125 0.84375 0.3125
v 0.78125 0.84375 0.1875
v 0.78125 0.65625 0.3125
v 0.78125 0.65625 0.1875
v 0.59375 0.84375 0.3125
v 0.59375 0.84375 0.1875
v 0.59375 0.65625 0.3125
v 0.59375 0.65625 0.1875
v -0.75 1.25 0.125
v -0.75 1.25 -0.125
v -0.75 -1 0.125
v -0.75 -1 -0.125
v -1 1.25 0.125
v -1 1.25 -0.125
v -1 -1 0.125
v -1 -1 -0.125
v -1 2.75 0.125
v -1 2.75 -0.125
v 1 2.75 0.125
v 1 2.75 -0.125
v 0.75 2.75 0.125
v -0.75 3 0.125
v -0.75 3 -0.125
v -0.75 2.75 -0.125
v 0.75 3 0.125
v 0.75 3 -0.125
vt 0.03125 0.53125
vt 0.03125 0.5
vt 0.21875 0.5
vt 0.21875 0.53125
vt 0.46875 0.6875
vt 0.46875 0.71875
vt 0.65625 0.71875
vt 0.65625 0.6875
vt 0.375 0.71875
vt 0.375 1
vt 0.1875 1
vt 0.1875 0.71875
vt 0.1875 0.71875
vt 0.1875 1
vt 0 1
vt 0 0.71875
vt 0.0625 0.46875
vt 0.0625 0.5
vt 0.09375 0.5
vt 0.09375 0.46875
vt 0.4375 0.71875
vt 0.4375 1
vt 0.40625 1
vt 0.40625 0.71875
vt 0.40625 0.71875
vt 0.40625 1
vt 0.375 1
vt 0.375 0.71875
vt 0.28125 0.34375
vt 0.28125 0.53125
vt 0.25 0.53125
vt 0.25 0.34375
vt 0.34375 0.34375
vt 0.34375 0.53125
vt 0.3125 0.53125
vt 0.3125 0.34375
vt 0.3125 0.34375
vt 0.3125 0.53125
vt 0.28125 0.53125
vt 0.28125 0.34375
vt 0.25 0.34375
vt 0.25 0.53125
vt 0.21875 0.53125
vt 0.21875 0.34375
vt 0.375 0.53125
vt 0.375 0.71875
vt 0.1875 0.71875
vt 0.1875 0.53125
vt 0.1875 0.53125
vt 0.1875 0.71875
vt 0 0.71875
vt 0 0.53125
vt 0.375 0.34375
vt 0.375 0.53125
vt 0.34375 0.53125
vt 0.34375 0.34375
vt 0.0625 0.3125
vt 0.0625 0.5
vt 0.03125 0.5
vt 0.03125 0.3125
vt 0.53125 0.8125
vt 0.53125 1
vt 0.5 1
vt 0.5 0.8125
vt 0.5 0.5
vt 0.5 0.6875
vt 0.46875 0.6875
vt 0.46875 0.5
vt 0.1875 0.46875
vt 0.1875 0.5
vt 0.15625 0.5
vt 0.15625 0.46875
vt 0.1875 0.5
vt 0.1875 0.46875
vt 0.21875 0.46875
vt 0.21875 0.5
vt 0.15625 0.46875
vt 0.15625 0.5
vt 0.125 0.5
vt 0.125 0.46875
vt 0.125 0.46875
vt 0.125 0.5
vt 0.09375 0.5
vt 0.09375 0.46875
vt 0.5 0.75
vt 0.5 0.71875
vt 0.6875 0.71875
vt 0.6875 0.75
vt 0.5 0.65625
vt 0.5 0.6875
vt 0.6875 0.6875
vt 0.6875 0.65625
vt 0.6875 0.75
vt 0.6875 0.78125
vt 0.5 0.78125
vt 0.5 0.75
vt 0.6875 0.78125
vt 0.6875 0.8125
vt 0.5 0.8125
vt 0.5 0.78125
vt 0.53125 0.59375
vt 0.53125 0.625
vt 0.5 0.625
vt 0.5 0.59375
vt 0.5 0.5625
vt 0.5 0.53125
vt 0.53125 0.53125
vt 0.53125 0.5625
vt 0.53125 0.5625
vt 0.53125 0.59375
vt 0.5 0.59375
vt 0.5 0.5625
vt 0.53125 0.625
vt 0.53125 0.65625
vt 0.5 0.65625
vt 0.5 0.625
vt 0.546875 0.515625
vt 0.546875 0.53125
vt 0.5 0.53125
vt 0.5 0.515625
vt 0.546875 0.5
vt 0.546875 0.515625
vt 0.5 0.515625
vt 0.5 0.5
vt 0.5 0.5
vt 0.5 0.453125
vt 0.515625 0.453125
vt 0.515625 0.5
vt 0.515625 0.453125
vt 0.515625 0.5
vt 0.53125 0.5
vt 0.53125 0.453125
vt 0.546875 0.90625
vt 0.546875 0.9296875
vt 0.53125 0.9296875
vt 0.53125 0.90625
vt 0.1015625 0.4453125
vt 0.1015625 0.46875
vt 0.0859375 0.46875
vt 0.0859375 0.4453125
vt 0.53125 0.90625
vt 0.53125 0.890625
vt 0.5546875 0.890625
vt 0.5546875 0.90625
vt 0.1015625 0.453125
vt 0.1015625 0.46875
vt 0.125 0.46875
vt 0.125 0.453125
vt 0.5546875 0.953125
vt 0.5546875 0.9765625
vt 0.53125 0.9765625
vt 0.53125 0.953125
vt 0.5546875 0.9765625
vt 0.5546875 1
vt 0.53125 1
vt 0.53125 0.9765625
vt 0.546875 0.8671875
vt 0.546875 0.890625
vt 0.53125 0.890625
vt 0.53125 0.8671875
vt 0.140625 0.4453125
vt 0.140625 0.46875
vt 0.125 0.46875
vt 0.125 0.4453125
vt 0.53125 0.8671875
vt 0.53125 0.8515625
vt 0.5546875 0.8515625
vt 0.5546875 0.8671875
vt 0.140625 0.453125
vt 0.140625 0.46875
vt 0.1640625 0.46875
vt 0.1640625 0.453125
vt 0.0859375 0.4453125
vt 0.0859375 0.46875
vt 0.0625 0.46875
vt 0.0625 0.4453125
vt 0.5546875 0.9296875
vt 0.5546875 0.953125
vt 0.53125 0.953125
vt 0.53125 0.9296875
vt 0.5 0.71875
vt 0.5 1
vt 0.46875 1
vt 0.46875 0.71875
vt 0.46875 0.46875
vt 0.46875 0.5
vt 0.5 0.5
vt 0.5 0.46875
vt 0.03125 0.25
vt 0.03125 0.53125
vt 0 0.53125
vt 0 0.25
vt 0.46875 0.71875
vt 0.46875 1
vt 0.4375 1
vt 0.4375 0.71875
vt 0.40625 0.4375
vt 0.40625 0.71875
vt 0.375 0.71875
vt 0.375 0.4375
vn 0 1 0
vn 0 -1 0
vn 0 0 1
vn 0 0 -1
vn 0 -1 0
vn 0 0 1
vn 0 0 -1
vn 1 0 0
vn -1 0 0
vn 0 0 1
vn 0 0 -1
vn 0 0 1
vn 0 0 -1
vn 1 0 0
vn -1 0 0
vn 0 0 1
vn 0 0 -1
vn -1 0 0
vn 0 1 0
vn 0 0 1
vn 0 0 -1
vn 0 1 0
vn 0 -1 0
vn 0 0 1
vn 0 0 -1
vn 1 0 0
vn 0 1 0
vn 0 0 1
vn 0 0 -1
vn 1 0 0
vn -1 0 0
vn 0 1 0
vn 0 -1 0
vn 1 0 0
vn -1 0 0
vn 0 1 0
vn 0 -1 0
vn 0 0 1
vn 0 0 -1
vn 1 0 0
vn -1 0 0
vn 0 1 0
vn 0 -1 0
vn 0 0 1
vn 0 0 -1
vn -1 0 0
vn 0 -1 0
vn 0 0 1
vn 0 0 -1
vn 1 0 0
usemtl m_c972c37f-904e-033f-80d7-f31a70c66653
f 5/1/1 6/2/1 56/3/1 55/4/1
f 8/5/2 7/6/2 57/7/2 58/8/2
f 7/9/3 5/10/3 55/11/3 57/12/3
f 58/13/4 56/14/4 6/15/4 8/16/4
f 4/17/5 3/18/5 7/19/5 8/20/5
f 3/21/6 1/22/6 5/23/6 7/24/6
f 8/25/7 6/26/7 2/27/7 4/28/7
f 56/29/8 70/30/8 26/31/8 55/32/8
f 59/33/9 63/34/9 64/35/9 60/36/9
f 55/37/10 26/38/10 63/39/10 59/40/10
f 60/41/11 64/42/11 70/43/11 56/44/11
f 11/45/12 9/46/12 13/47/12 15/48/12
f 16/49/13 14/50/13 10/51/13 12/52/13
f 2/53/14 66/54/14 65/55/14 1/56/14
f 5/57/15 67/58/15 25/59/15 6/60/15
f 1/61/16 65/62/16 67/63/16 5/64/16
f 6/65/17 25/66/17 66/67/17 2/68/17
f 21/69/18 19/70/18 20/71/18 22/72/18
f 17/73/19 18/74/19 20/75/19 19/76/19
f 26/77/20 17/78/20 19/79/20 21/80/20
f 22/81/21 20/82/21 18/83/21 70/84/21
f 23/85/22 24/86/22 69/87/22 68/88/22
f 25/89/23 67/90/23 26/91/23 70/92/23
f 67/93/24 23/94/24 68/95/24 26/96/24
f 70/97/25 69/98/25 24/99/25 25/100/25
f 30/101/26 28/102/26 27/103/26 29/104/26
f 27/105/27 28/106/27 72/107/27 71/108/27
f 29/109/28 27/110/28 71/111/28 67/112/28
f 25/113/29 72/114/29 28/115/29 30/116/29
f 34/117/30 32/118/30 31/119/30 33/120/30
f 37/121/31 35/122/31 36/123/31 38/124/31
f 31/125/32 32/126/32 36/127/32 35/128/32
f 34/129/33 33/130/33 37/131/33 38/132/33
f 42/133/34 40/134/34 39/135/34 41/136/34
f 45/137/35 43/138/35 44/139/35 46/140/35
f 39/141/36 40/142/36 44/143/36 43/144/36
f 42/145/37 41/146/37 45/147/37 46/148/37
f 41/149/38 39/150/38 43/151/38 45/152/38
f 46/153/39 44/154/39 40/155/39 42/156/39
f 50/157/40 48/158/40 47/159/40 49/160/40
f 53/161/41 51/162/41 52/163/41 54/164/41
f 47/165/42 48/166/42 52/167/42 51/168/42
f 50/169/43 49/170/43 53/171/43 54/172/43
f 49/173/44 47/174/44 51/175/44 53/176/44
f 54/177/45 52/178/45 48/179/45 50/180/45
f 61/181/46 59/182/46 60/183/46 62/184/46
f 58/185/47 57/186/47 61/187/47 62/188/47
f 57/189/48 55/190/48 59/191/48 61/192/48
f 62/193/49 60/194/49 56/195/49 58/196/49
f 4/197/50 2/198/50 1/199/50 3/200/50