# Made in Blockbench 4.12.5
mtllib Stairs.mtl

o cube
v 0.5 0 1
v 0.5 0 -1
v 0.5 -1 1
v 0.5 -1 -1
v -1 0 1
v -1 0 -1
v -1 -1 1
v -1 -1 -1
v 1 -0.5 1
v 1 -0.5 -1
v 1 -1 1
v 1 -1 -1
v 0.5 -0.5 1
v 0.5 -0.5 -1
v 0.5 -1 1
v 0.5 -1 -1
v 0 0.5 1
v 0 0.5 -1
v 0 0 1
v 0 0 -1
v -1 0.5 1
v -1 0.5 -1
v -1 0 1
v -1 0 -1
v -0.5 1 1
v -0.5 1 -1
v -0.5 0.5 1
v -0.5 0.5 -1
v -1 1 1
v -1 1 -1
v -1 0.5 1
v -1 0.5 -1
vt 0.25 0.5
vt 0.25 0.625
vt 0 0.625
vt 0 0.5
vt 0.25 0.25
vt 0.25 0.375
vt 0 0.375
vt 0 0.25
vt 0.3125 1
vt 0.3125 0.75
vt 0.5 0.75
vt 0.5 1
vt 0.3125 0.5
vt 0.3125 0.75
vt 0.5 0.75
vt 0.5 0.5
vt 0.6875 0.75
vt 0.6875 0.875
vt 0.5 0.875
vt 0.5 0.75
vt 0.25 0.75
vt 0.25 0.875
vt 0.0625 0.875
vt 0.0625 0.75
vt 0.25 0.5
vt 0.25 0.5625
vt 0 0.5625
vt 0 0.5
vt 0.25 0.25
vt 0.25 0.3125
vt 0 0.3125
vt 0 0.25
vt 0.25 1
vt 0.25 0.75
vt 0.3125 0.75
vt 0.3125 1
vt 0.25 0.5
vt 0.25 0.75
vt 0.3125 0.75
vt 0.3125 0.5
vt 0.75 0.75
vt 0.75 0.8125
vt 0.6875 0.8125
vt 0.6875 0.75
vt 0.0625 0.75
vt 0.0625 0.8125
vt 0 0.8125
vt 0 0.75
vt 0.25 0.625
vt 0.25 0.6875
vt 0 0.6875
vt 0 0.625
vt 0.25 0.375
vt 0.25 0.4375
vt 0 0.4375
vt 0 0.375
vt 0.375 1
vt 0.375 0.75
vt 0.5 0.75
vt 0.5 1
vt 0.375 0.5
vt 0.375 0.75
vt 0.5 0.75
vt 0.5 0.5
vt 0.625 0.875
vt 0.625 0.9375
vt 0.5 0.9375
vt 0.5 0.875
vt 0.25 0.875
vt 0.25 0.9375
vt 0.125 0.9375
vt 0.125 0.875
vt 0.25 0.6875
vt 0.25 0.75
vt 0 0.75
vt 0 0.6875
vt 0.25 0.4375
vt 0.25 0.5
vt 0 0.5
vt 0 0.4375
vt 0.4375 1
vt 0.4375 0.75
vt 0.5 0.75
vt 0.5 1
vt 0.4375 0.5
vt 0.4375 0.75
vt 0.5 0.75
vt 0.5 0.5
vt 0.5625 0.9375
vt 0.5625 1
vt 0.5 1
vt 0.5 0.9375
vt 0.25 0.9375
vt 0.25 1
vt 0.1875 1
vt 0.1875 0.9375
vn 1 0 0
vn -1 0 0
vn 0 1 0
vn 0 -1 0
vn 0 0 1
vn 0 0 -1
vn 1 0 0
vn -1 0 0
vn 0 1 0
vn 0 -1 0
vn 0 0 1
vn 0 0 -1
vn 1 0 0
vn -1 0 0
vn 0 1 0
vn 0 -1 0
vn 0 0 1
vn 0 0 -1
vn 1 0 0
vn -1 0 0
vn 0 1 0
vn 0 -1 0
vn 0 0 1
vn 0 0 -1
usemtl m_f7dd849b-7337-2f4a-31bb-d38667a6525d
f 4/1/1 2/2/1 1/3/1 3/4/1
f 7/5/2 5/6/2 6/7/2 8/8/2
f 1/9/3 2/10/3 6/11/3 5/12/3
f 4/13/4 3/14/4 7/15/4 8/16/4
f 3/17/5 1/18/5 5/19/5 7/20/5
f 8/21/6 6/22/6 2/23/6 4/24/6
f 12/25/7 10/26/7 9/27/7 11/28/7
f 15/29/8 13/30/8 14/31/8 16/32/8
f 9/33/9 10/34/9 14/35/9 13/36/9
f 12/37/10 11/38/10 15/39/10 16/40/10
f 11/41/11 9/42/11 13/43/11 15/44/11
f 16/45/12 14/46/12 10/47/12 12/48/12
f 20/49/13 18/50/13 17/51/13 19/52/13
f 23/53/14 21/54/14 22/55/14 24/56/14
f 17/57/15 18/58/15 22/59/15 21/60/15
f 20/61/16 19/62/16 23/63/16 24/64/16
f 19/65/17 17/66/17 21/67/17 23/68/17
f 24/69/18 22/70/18 18/71/18 20/72/18
f 28/73/19 26/74/19 25/75/19 27/76/19
f 31/77/20 29/78/20 30/79/20 32/80/20
f 25/81/21 26/82/21 30/83/21 29/84/21
f 28/85/22 27/86/22 31/87/22 32/88/22
f 27/89/23 25/90/23 29/91/23 31/92/23
f 32/93/24 30/94/24 26/95/24 28/96/24